<?xml version="1.0" encoding="UTF-8"?>
<svg id="Camada_2" data-name="Camada 2" xmlns="http://www.w3.org/2000/svg" viewBox="0 0 1159.41 372.25">
  <defs>
    <style>
      .cls-1 {
        fill: #909;
      }

      .cls-2 {
        fill: #28b8ce;
      }

      .cls-3 {
        fill: #28b8ce;
      }
    </style>
  </defs>
  <g id="logo">
    <path class="cls-2" d="M330.92,24.9c-56-50.27-121.35-12.44-141.41,9.26-3.39,3.67-7.38,3.61-10.07-.59-3.89-6.07-8.85-11.88-14.99-16.32-8.58-6.21-21.22-12.36-37.32-11.84-6.56.21-4.89,3.94-2.52,4.32,15.65,2.54,21.34,4.88,33.93,17.25,6.74,6.63,15.16,20.73,18.68,40.91,1.83,10.48,8.99,10.13,14.09.12,17.45-34.23,53.99-47.47,81.3-38.8s65.55,60.48-32.11,96.3c-.9.33-1.65.97-2.6.84-28.41-3.86-45.17,4.26-60.2,17.2-.4.34-.45.95-.11,1.35,4.86,5.76,10.84,12.24,19.16,19.26,18.71,15.77,1.05,31.8-18.04,30.82-10.78-.56-22.35-10.89-31.25-20.34-.36-.38-.95-.4-1.34-.04-2.05,1.92-4.18,3.85-6.39,5.75-33.93,29.28-42.23,38.74-62.1,54.65-21.14,16.93.38,51.12,15.72,42.54,5.83-3.26,18.3-13.12,30.08-22.1,3.05-2.33,6.67,2.03,3.83,4.61-13,11.79-26.57,23.49-32.82,25.2h-.04c-2.38.66-4.11,2.71-4.37,5.17-1.86,17.67,18.39,29.86,38.41,19.34,8.87-5.27,20.22-15.35,31.23-24.62,2.89-2.44,6.71,1.63,4.1,4.37-9.2,9.64-17.93,19.14-24.66,23.76-1.19.82-1.59,2.39-.97,3.7,4.86,10.15,17.22,13.96,30.14,8.78,1.69-.68,2.97-2.15,3.25-3.95.73-4.77,4.17-10.31,10.97-11.24,2.13-.29,3.48-2.42,2.73-4.43-4.59-12.2,8.71-25.25,21.07-24.22,2.89.24,3.49-2.06,2.74-3.61-7.34-14.94,3.41-23.95,13-27.75,8.89-3.53,16.1-.27,20.63,3.03,1.94,1.42,4.69.43,5.34-1.88,2.19-7.71,10.48-13.07,19.07-12.02,8.61,1.06,11.61,3.82,17.17,13.32,1.52,2.6,5.31,2.55,6.74-.1,3.25-6.01,6.19-12.22,9.13-19.78,2.94-7.57,4.42-13.51,4.77-18.11.02-.27.07-.53.16-.79,2.12-6.16,2.74-10.65,2.92-12.56.06-.64.42-1.2.96-1.53,23.49-14.02,97.66-107.28,22.01-175.19Z"/>
    <g>
      <path class="cls-1" d="M115.07,127.99C15.52,75.25,84.23,8.47,153.78,39.76c4.71,2.12,7.3-3.59,4.5-7.8C141.13,6.16,73.22-2.32,38.68,24.9c-79.19,62.41-16.03,161.64,7.45,176.83.87.57,1.45,1.5,1.58,2.53.51,3.96,2.62,14.62,8.46,27.59,2.69,5.97,10.33,7.77,15.43,3.65,12.05-9.75,29.39-26.77,49.08-43.25,3.49-2.92,1.79-8.6-2.73-9.14-11.62-1.37-17.45-1.6-16.21-2.36,3.27-2.01,24.19-.11,30.71-2.32,5.58-1.88,7.91-10.74,5.18-13.46-3.66-3.66.5-3.76,3.1-1.54,4.9,4.19,23.39,28.11,39.07,28.93,16.25.85,31.18-12.46,15.25-26.09-33.8-28.92-26.51-45.27-77.71-37.89-.77.11-1.58-.02-2.27-.39Z"/>
      <path class="cls-1" d="M237.03,323.12c-2.51,5.78,41.68-.09,29.05-27.9-12.77-28.1-21.68-39.05-35.16-41.04-10.59-1.56-22.47,14.59-16.49,26.97,4.44,9.17,9.41,6.92,19.83,24.56,4.05,6.86,4.36,13.74,2.77,17.4Z"/>
      <path class="cls-1" d="M269.86,297.7c-2.17,3.98,24.48-10.42,15.29-31.57-8.9-20.5-10.87-21.08-18.48-22s-18.58,9.54-13.53,18.19c4.3,7.36,9.41,14.6,12.09,19.75s6,13.12,4.63,15.64Z"/>
      <path class="cls-1" d="M210,332.91c-2.11,4.77,34.39,1.28,22.42-22.15-9.14-17.9-18.75-24.55-27.84-25.07-9.09-.52-19.42,12.23-13.91,22.24,3.42,6.21,9.95,9.59,14.29,14.51,2.66,3.03,6.38,7.44,5.04,10.46Z"/>
      <path class="cls-1" d="M206.19,329.74c-3.61-8.58-16-16.49-22.43-15.52s-10.65,8.87-7.08,15.58c3.58,6.71,10.49,11.42,17.27,12.65s15.83-4.13,12.23-12.71Z"/>
    </g>
    <g>
      <path class="cls-1" d="M529.22,164.77c1.6,3.33,2.47,6.17,2.6,8.5.13,2.33-.57,4.4-2.1,6.2-1.53,1.8-4.03,3.57-7.5,5.3-5.33,2.53-9.47,3.3-12.4,2.3-2.93-1-5.67-4.17-8.2-9.5l-39.2-82-39,82c-2.67,5.2-5.43,8.3-8.3,9.3-2.87,1-6.97.23-12.3-2.3-3.47-1.6-5.97-3.3-7.5-5.1-1.54-1.8-2.23-3.93-2.1-6.4.13-2.47,1.07-5.37,2.8-8.7l52.6-109.4c1.33-2.67,3.3-4.8,5.9-6.4,2.6-1.6,5.3-2.4,8.1-2.4,2,0,3.87.37,5.6,1.1,1.73.73,3.3,1.77,4.7,3.1,1.4,1.33,2.57,2.93,3.5,4.8l52.8,109.6ZM428.82,153.37l12.4-25.8h42.6l12.4,25.8h-67.4Z"/>
      <path class="cls-1" d="M552.22,185.97c-4.8,0-8.27-.73-10.4-2.2-2.13-1.46-3.4-3.33-3.8-5.6-.4-2.27-.6-4.73-.6-7.4v-70c0-2.67.23-5.1.7-7.3.46-2.2,1.77-4,3.9-5.4,2.13-1.4,5.67-2.1,10.6-2.1s8.53.97,10.8,2.9c2.27,1.93,3.4,5.1,3.4,9.5l-2.6,2.2c.27-.67,1.07-1.8,2.4-3.4,1.33-1.6,3.07-3.27,5.2-5,2.13-1.73,4.63-3.23,7.5-4.5,2.87-1.27,5.97-1.9,9.3-1.9,4.4,0,8.37.63,11.9,1.9,3.53,1.27,6.73,3.13,9.6,5.6,2.87,2.47,5.37,5.57,7.5,9.3,1.87-2.67,4.13-5.27,6.8-7.8,2.67-2.53,5.83-4.67,9.5-6.4,3.67-1.73,7.77-2.6,12.3-2.6,7.73,0,14.3,1.97,19.7,5.9,5.4,3.93,9.5,9.57,12.3,16.9,2.8,7.33,4.2,16.2,4.2,26.6v35.8c0,2.53-.23,4.97-.7,7.3-.47,2.33-1.77,4.2-3.9,5.6-2.13,1.4-5.67,2.1-10.6,2.1s-8.43-.73-10.5-2.2c-2.07-1.46-3.33-3.37-3.8-5.7-.47-2.33-.7-4.77-.7-7.3v-35.8c0-4.13-.47-7.6-1.4-10.4-.93-2.8-2.37-4.97-4.3-6.5-1.93-1.53-4.37-2.3-7.3-2.3s-5.67.7-7.8,2.1c-2.13,1.4-3.73,3.53-4.8,6.4-1.07,2.87-1.6,6.5-1.6,10.9v35.8c0,2.67-.33,5.17-1,7.5-.67,2.33-2.1,4.2-4.3,5.6-2.2,1.4-5.7,2.03-10.5,1.9-4.8-.13-8.2-.93-10.2-2.4-2-1.47-3.2-3.37-3.6-5.7-.4-2.33-.6-4.7-.6-7.1v-35.8c0-4.13-.47-7.63-1.4-10.5-.93-2.87-2.33-5.03-4.2-6.5-1.87-1.47-4.33-2.2-7.4-2.2-3.33,0-6.07.87-8.2,2.6-2.13,1.73-3.7,4.03-4.7,6.9-1,2.87-1.5,6.1-1.5,9.7v36c0,2.67-.23,5.13-.7,7.4-.47,2.27-1.77,4.1-3.9,5.5-2.13,1.4-5.67,2.1-10.6,2.1Z"/>
      <path class="cls-1" d="M710.22,71.57c-5.07,0-8.67-.73-10.8-2.2-2.13-1.47-3.43-3.4-3.9-5.8-.47-2.4-.7-4.93-.7-7.6,0-2.8.27-5.37.8-7.7.53-2.33,1.87-4.2,4-5.6,2.13-1.4,5.73-2.1,10.8-2.1s8.47.73,10.6,2.2c2.13,1.47,3.43,3.4,3.9,5.8.47,2.4.7,4.93.7,7.6s-.23,5.2-.7,7.6c-.47,2.4-1.77,4.3-3.9,5.7-2.13,1.4-5.73,2.1-10.8,2.1ZM710.22,185.97c-4.93,0-8.43-.7-10.5-2.1-2.07-1.4-3.33-3.27-3.8-5.6-.47-2.33-.7-4.77-.7-7.3v-69.8c0-2.67.23-5.13.7-7.4.47-2.27,1.77-4.1,3.9-5.5,2.13-1.4,5.67-2.1,10.6-2.1s8.23.73,10.3,2.2c2.07,1.47,3.33,3.33,3.8,5.6.47,2.27.7,4.8.7,7.6v69.6c0,2.53-.23,4.97-.7,7.3-.47,2.33-1.73,4.17-3.8,5.5-2.07,1.33-5.57,2-10.5,2Z"/>
      <path class="cls-1" d="M749.62,185.97c-4.13,0-7.63-1.43-10.5-4.3-2.87-2.87-4.3-6.43-4.3-10.7,0-2,.37-3.93,1.1-5.8.73-1.87,1.9-3.53,3.5-5l45.2-44.2h-30.4c-2.53,0-4.97-.23-7.3-.7-2.33-.46-4.23-1.77-5.7-3.9-1.47-2.13-2.2-5.6-2.2-10.4s.73-8.43,2.2-10.5c1.47-2.07,3.37-3.33,5.7-3.8,2.33-.47,4.77-.7,7.3-.7h62.6c4.27,0,7.8,1.4,10.6,4.2,2.8,2.8,4.2,6.33,4.2,10.6,0,2.13-.37,4.13-1.1,6-.73,1.87-1.77,3.4-3.1,4.6l-44.4,44.4h36.2c2.67,0,5.13.27,7.4.8,2.27.53,4.1,1.87,5.5,4,1.4,2.13,2.1,5.67,2.1,10.6s-.73,8.27-2.2,10.4c-1.47,2.13-3.33,3.4-5.6,3.8-2.27.4-4.73.6-7.4.6h-69.4Z"/>
      <path class="cls-1" d="M924.22,185.77c-4.93,0-8.57-.87-10.9-2.6-2.33-1.73-3.5-3.87-3.5-6.4l2-3.4c-.8,1.33-2.33,2.97-4.6,4.9-2.27,1.93-5.2,3.67-8.8,5.2s-8.07,2.3-13.4,2.3c-6.13,0-11.97-1.33-17.5-4-5.53-2.67-10.43-6.37-14.7-11.1-4.27-4.73-7.63-10.1-10.1-16.1-2.47-6-3.7-12.33-3.7-19s1.23-12.77,3.7-18.7c2.47-5.93,5.87-11.2,10.2-15.8,4.33-4.6,9.23-8.23,14.7-10.9,5.47-2.67,11.27-4,17.4-4,4.93,0,9.13.7,12.6,2.1,3.47,1.4,6.37,3.04,8.7,4.9,2.33,1.87,4.1,3.67,5.3,5.4l-1.6-2.8c-.13-3.2.97-5.63,3.3-7.3,2.33-1.67,6.03-2.5,11.1-2.5,4.8,0,8.23.73,10.3,2.2,2.07,1.47,3.33,3.4,3.8,5.8.47,2.4.7,4.93.7,7.6v69c0,2.53-.23,5-.7,7.4-.47,2.4-1.73,4.3-3.8,5.7-2.07,1.4-5.57,2.1-10.5,2.1ZM889.42,155.97c3.47,0,6.63-.9,9.5-2.7,2.87-1.8,5.13-4.23,6.8-7.3,1.67-3.07,2.5-6.47,2.5-10.2s-.87-7.3-2.6-10.3c-1.73-3-4.07-5.4-7-7.2-2.93-1.8-6.13-2.7-9.6-2.7-3.87,0-7.3.93-10.3,2.8-3,1.87-5.4,4.33-7.2,7.4-1.8,3.07-2.7,6.54-2.7,10.4,0,3.6.9,6.9,2.7,9.9,1.8,3,4.27,5.4,7.4,7.2,3.13,1.8,6.63,2.7,10.5,2.7Z"/>
      <path class="cls-1" d="M994.01,185.77c-6,0-11.77-1.3-17.3-3.9-5.53-2.6-10.43-6.23-14.7-10.9-4.27-4.67-7.63-10.03-10.1-16.1-2.47-6.07-3.7-12.5-3.7-19.3s1.23-12.77,3.7-18.7c2.46-5.93,5.87-11.2,10.2-15.8,4.33-4.6,9.23-8.23,14.7-10.9,5.47-2.67,11.2-4,17.2-4,6.4,0,12.03,1.3,16.9,3.9,4.87,2.6,8.96,6.17,12.3,10.7,3.33,4.54,5.83,9.8,7.5,15.8,1.67,6,2.57,12.27,2.7,18.8.13,6.8-.63,13.2-2.3,19.2-1.67,6-4.17,11.33-7.5,16-3.33,4.67-7.43,8.37-12.3,11.1-4.87,2.73-10.63,4.1-17.3,4.1ZM998.01,156.17c3.6,0,6.83-.9,9.7-2.7,2.87-1.8,5.2-4.23,7-7.3,1.8-3.07,2.7-6.47,2.7-10.2s-.87-7.3-2.6-10.3c-1.73-3-4.07-5.37-7-7.1-2.93-1.73-6.27-2.6-10-2.6s-6.9.87-9.9,2.6c-3,1.73-5.33,4.1-7,7.1-1.67,3-2.5,6.43-2.5,10.3s.87,7.13,2.6,10.2c1.73,3.07,4.13,5.5,7.2,7.3,3.07,1.8,6.33,2.7,9.8,2.7ZM1033.01,185.97c-4.53,0-7.93-.73-10.2-2.2-2.27-1.46-3.73-3.73-4.4-6.8V55.77c0-2.53.17-4.97.5-7.3.33-2.33,1.5-4.23,3.5-5.7,2-1.47,5.46-2.2,10.4-2.2s8.43.7,10.5,2.1c2.07,1.4,3.33,3.23,3.8,5.5.47,2.27.7,4.73.7,7.4v115.2c0,2.54-.23,4.97-.7,7.3-.47,2.33-1.73,4.23-3.8,5.7-2.07,1.47-5.5,2.2-10.3,2.2Z"/>
      <path class="cls-1" d="M1109.81,187.77c-9.33,0-17.37-1.53-24.1-4.6-6.73-3.07-12.23-7.1-16.5-12.1-4.27-5-7.43-10.57-9.5-16.7-2.07-6.13-3.1-12.27-3.1-18.4,0-10,2.27-18.87,6.8-26.6,4.53-7.73,10.8-13.83,18.8-18.3,8-4.47,17.2-6.7,27.6-6.7,7.73,0,14.43,1.23,20.1,3.7,5.67,2.47,10.33,5.67,14,9.6,3.67,3.93,6.4,8.17,8.2,12.7,1.8,4.53,2.7,8.87,2.7,13,0,7.33-1.77,12.77-5.3,16.3s-8.03,5.3-13.5,5.3h-47.6c.27,3.47,1.5,6.4,3.7,8.8,2.2,2.4,4.97,4.27,8.3,5.6,3.33,1.33,6.87,2,10.6,2,3.2,0,6-.17,8.4-.5,2.4-.33,4.46-.8,6.2-1.4,1.73-.6,3.33-1.2,4.8-1.8,1.46-.6,2.77-1.1,3.9-1.5,1.13-.4,2.23-.67,3.3-.8,2-.13,3.83.43,5.5,1.7,1.67,1.27,3.17,3.17,4.5,5.7.93,1.47,1.57,2.87,1.9,4.2.33,1.33.5,2.67.5,4,0,3.2-1.63,6.07-4.9,8.6-3.27,2.53-7.87,4.53-13.8,6-5.93,1.46-13.1,2.2-21.5,2.2ZM1088.41,128.57h31.6c2.13,0,3.7-.37,4.7-1.1,1-.73,1.5-2.17,1.5-4.3,0-2.4-.73-4.5-2.2-6.3-1.47-1.8-3.43-3.2-5.9-4.2-2.47-1-5.3-1.5-8.5-1.5-4.13,0-7.8.8-11,2.4-3.2,1.6-5.7,3.73-7.5,6.4-1.8,2.67-2.7,5.53-2.7,8.6Z"/>
      <path class="cls-3" d="M440.4,331.75c-4.56,0-8.85-.54-12.87-1.62-4.02-1.08-7.68-2.55-10.98-4.41-3.3-1.86-6.21-3.93-8.73-6.21-2.52-2.28-4.5-4.56-5.94-6.84-1.32-1.92-2.16-3.51-2.52-4.77-.36-1.26-.27-2.49.27-3.69.54-1.2,1.65-2.52,3.33-3.96,1.92-1.44,3.6-2.13,5.04-2.07,1.44.06,2.79.63,4.05,1.71,1.26,1.08,2.55,2.52,3.87,4.32,3,4.08,6.66,7.05,10.98,8.91,4.32,1.86,8.58,2.79,12.78,2.79,5.4,0,10.2-.72,14.4-2.16,4.2-1.44,7.53-3.63,9.99-6.57,2.46-2.94,3.69-6.75,3.69-11.43,0-3.84-.96-7.08-2.88-9.72-1.92-2.64-4.5-4.89-7.74-6.75-3.24-1.86-6.84-3.48-10.8-4.86-3.96-1.38-7.98-2.73-12.06-4.05-3.24-1.08-6.42-2.31-9.54-3.69-3.12-1.38-6.06-2.94-8.82-4.68-2.76-1.74-5.19-3.81-7.29-6.21-2.1-2.4-3.72-5.22-4.86-8.46-1.14-3.24-1.71-7.02-1.71-11.34,0-6.6,1.59-12.42,4.77-17.46,3.18-5.04,7.65-8.97,13.41-11.79,5.76-2.82,12.42-4.23,19.98-4.23,4.44,0,8.52.42,12.24,1.26,3.72.84,7.02,1.95,9.9,3.33,2.88,1.38,5.34,2.82,7.38,4.32,2.04,1.5,3.6,2.91,4.68,4.23,2.16,2.28,3.36,4.2,3.6,5.76.24,1.56-.66,3.48-2.7,5.76-1.92,2.16-3.78,3.3-5.58,3.42-1.8.12-3.78-.72-5.94-2.52-2.28-2.64-4.65-4.68-7.11-6.12-2.46-1.44-5.04-2.43-7.74-2.97-2.7-.54-5.67-.81-8.91-.81s-6.03.39-8.73,1.17c-2.7.78-5.04,1.95-7.02,3.51-1.98,1.56-3.51,3.45-4.59,5.67-1.08,2.22-1.62,4.77-1.62,7.65,0,3.24.87,6,2.61,8.28,1.74,2.28,4.05,4.23,6.93,5.85,2.88,1.62,6.12,3.06,9.72,4.32,3.6,1.26,7.38,2.49,11.34,3.69,4.32,1.32,8.58,2.91,12.78,4.77,4.2,1.86,7.98,4.14,11.34,6.84,3.36,2.7,6.06,6.09,8.1,10.17,2.04,4.08,3.06,9.12,3.06,15.12s-1.17,11.28-3.51,15.84c-2.34,4.56-5.55,8.37-9.63,11.43-4.08,3.06-8.73,5.37-13.95,6.93-5.22,1.56-10.71,2.34-16.47,2.34Z"/>
      <path class="cls-3" d="M573.24,329.77c-2.64,0-4.53-.54-5.67-1.62-1.14-1.08-1.83-2.76-2.07-5.04l.72-9c-1.2,1.92-3.06,4.11-5.58,6.57-2.52,2.46-5.82,4.62-9.9,6.48-4.08,1.86-9.06,2.79-14.94,2.79s-11.13-1.14-16.11-3.42c-4.98-2.28-9.36-5.46-13.14-9.54-3.78-4.08-6.72-8.76-8.82-14.04-2.1-5.28-3.15-10.92-3.15-16.92s1.05-11.43,3.15-16.65c2.1-5.22,5.07-9.81,8.91-13.77,3.84-3.96,8.25-7.08,13.23-9.36,4.98-2.28,10.29-3.42,15.93-3.42,5.28,0,9.78.69,13.5,2.07,3.72,1.38,6.93,3.18,9.63,5.4,2.7,2.22,5.07,4.71,7.11,7.47l-.36-7.56c-.12-2.64.45-4.53,1.71-5.67,1.26-1.14,3.27-1.71,6.03-1.71,2.28,0,3.93.36,4.95,1.08,1.02.72,1.71,1.74,2.07,3.06.36,1.32.54,2.94.54,4.86v69.48c0,1.68-.18,3.18-.54,4.5-.36,1.32-1.08,2.31-2.16,2.97s-2.76.99-5.04.99ZM538.5,314.83c4.8,0,9.21-1.26,13.23-3.78,4.02-2.52,7.2-5.91,9.54-10.17,2.34-4.26,3.51-9.15,3.51-14.67s-1.23-10.59-3.69-14.85c-2.46-4.26-5.7-7.62-9.72-10.08-4.02-2.46-8.43-3.69-13.23-3.69-5.64,0-10.53,1.29-14.67,3.87-4.14,2.58-7.41,6.03-9.81,10.35-2.4,4.32-3.6,9.24-3.6,14.76s1.2,10.23,3.6,14.49c2.4,4.26,5.73,7.62,9.99,10.08,4.26,2.46,9.21,3.69,14.85,3.69Z"/>
      <path class="cls-3" d="M633.36,330.13c-5.28,0-10.17-.96-14.67-2.88-4.5-1.92-8.43-4.62-11.79-8.1-3.36-3.48-5.97-7.68-7.83-12.6-1.86-4.92-2.79-10.5-2.79-16.74v-39.06c0-1.68.18-3.12.54-4.32.36-1.2,1.11-2.13,2.25-2.79,1.14-.66,2.85-.99,5.13-.99s3.99.36,5.13,1.08c1.14.72,1.89,1.68,2.25,2.88.36,1.2.54,2.64.54,4.32v39.06c0,4.92.84,9.27,2.52,13.05,1.68,3.78,4.23,6.69,7.65,8.73,3.42,2.04,7.59,3.06,12.51,3.06s9.39-1.02,13.05-3.06c3.66-2.04,6.48-4.95,8.46-8.73,1.98-3.78,2.97-8.13,2.97-13.05v-39.24c0-1.68.18-3.12.54-4.32.36-1.2,1.11-2.13,2.25-2.79,1.14-.66,2.85-.99,5.13-.99s3.99.36,5.13,1.08c1.14.72,1.86,1.68,2.16,2.88.3,1.2.45,2.64.45,4.32v71.46c0,1.44-.15,2.73-.45,3.87-.3,1.14-1.02,2.01-2.16,2.61-1.14.6-2.85.9-5.13.9-1.68,0-3.03-.18-4.05-.54-1.02-.36-1.77-.84-2.25-1.44-.48-.6-.81-1.29-.99-2.07-.18-.78-.27-1.59-.27-2.43l.72-7.74c-1.2,1.44-2.64,3-4.32,4.68-1.68,1.68-3.63,3.27-5.85,4.77-2.22,1.5-4.71,2.73-7.47,3.69-2.76.96-5.88,1.44-9.36,1.44ZM631.92,230.95c-1.92.36-3.42.18-4.5-.54-1.08-.72-1.98-2.22-2.7-4.5-.84-2.52-.99-4.44-.45-5.76.54-1.32,1.95-2.34,4.23-3.06l28.8-9.72c1.8-.36,3.24-.15,4.32.63,1.08.78,1.98,2.31,2.7,4.59.84,2.52.93,4.41.27,5.67-.66,1.26-2.13,2.31-4.41,3.15l-28.26,9.54Z"/>
      <path class="cls-3" d="M730.56,329.95c-5.4,0-10.56-1.08-15.48-3.24-4.92-2.16-9.21-5.22-12.87-9.18-3.66-3.96-6.54-8.61-8.64-13.95-2.1-5.34-3.15-11.19-3.15-17.55s1.05-12,3.15-17.28c2.1-5.28,4.98-9.87,8.64-13.77,3.66-3.9,7.95-6.93,12.87-9.09,4.92-2.16,10.08-3.24,15.48-3.24,5.88,0,11.19,1.08,15.93,3.24,4.74,2.16,8.82,5.19,12.24,9.09,3.42,3.9,6.03,8.52,7.83,13.86,1.8,5.34,2.7,11.13,2.7,17.37.12,6.36-.75,12.18-2.61,17.46-1.86,5.28-4.47,9.9-7.83,13.86-3.36,3.96-7.41,7.02-12.15,9.18-4.74,2.16-10.11,3.24-16.11,3.24ZM732.9,314.65c5.04,0,9.57-1.2,13.59-3.6,4.02-2.4,7.2-5.73,9.54-9.99,2.34-4.26,3.51-9.15,3.51-14.67s-1.17-10.59-3.51-14.85c-2.34-4.26-5.52-7.59-9.54-9.99-4.02-2.4-8.55-3.6-13.59-3.6s-9.6,1.2-13.68,3.6c-4.08,2.4-7.29,5.73-9.63,9.99-2.34,4.26-3.51,9.21-3.51,14.85s1.17,10.41,3.51,14.67c2.34,4.26,5.58,7.59,9.72,9.99,4.14,2.4,8.67,3.6,13.59,3.6ZM768.18,329.95c-2.64,0-4.56-.48-5.76-1.44-1.2-.96-1.92-2.58-2.16-4.86v-112.68c0-1.8.15-3.3.45-4.5.3-1.2,1.02-2.13,2.16-2.79,1.14-.66,2.85-.99,5.13-.99s3.99.33,5.13.99c1.14.66,1.89,1.59,2.25,2.79.36,1.2.54,2.64.54,4.32v110.88c0,1.68-.18,3.15-.54,4.41-.36,1.26-1.08,2.22-2.16,2.88-1.08.66-2.76.99-5.04.99Z"/>
      <path class="cls-3" d="M835.86,330.85c-7.2,0-13.62-1.2-19.26-3.6-5.64-2.4-10.41-5.67-14.31-9.81-3.9-4.14-6.87-8.91-8.91-14.31-2.04-5.4-3.06-11.22-3.06-17.46,0-8.28,1.92-15.66,5.76-22.14,3.84-6.48,9.15-11.61,15.93-15.39,6.78-3.78,14.55-5.67,23.31-5.67,6,0,11.37.93,16.11,2.79,4.74,1.86,8.79,4.35,12.15,7.47,3.36,3.12,5.94,6.6,7.74,10.44,1.8,3.84,2.7,7.68,2.7,11.52,0,6.12-1.44,10.41-4.32,12.87-2.88,2.46-6.42,3.69-10.62,3.69h-52.02c-.12,5.28,1.29,9.81,4.23,13.59,2.94,3.78,6.66,6.69,11.16,8.73,4.5,2.04,9.03,3.06,13.59,3.06,3.36,0,6.24-.18,8.64-.54,2.4-.36,4.5-.84,6.3-1.44,1.8-.6,3.36-1.2,4.68-1.8,1.32-.6,2.49-1.2,3.51-1.8,1.02-.6,2.01-1.02,2.97-1.26,1.08-.24,2.13-.15,3.15.27,1.02.42,1.83,1.23,2.43,2.43.72.96,1.2,1.86,1.44,2.7.24.84.36,1.74.36,2.7,0,1.68-1.44,3.54-4.32,5.58-2.88,2.04-6.87,3.78-11.97,5.22-5.1,1.44-10.89,2.16-17.37,2.16ZM807.06,280.63h45.18c2.28,0,3.99-.3,5.13-.9,1.14-.6,1.71-2.22,1.71-4.86,0-3.36-1.02-6.39-3.06-9.09-2.04-2.7-4.83-4.89-8.37-6.57-3.54-1.68-7.59-2.52-12.15-2.52-5.28,0-10.11,1.05-14.49,3.15-4.38,2.1-7.83,4.95-10.35,8.55-2.52,3.6-3.72,7.68-3.6,12.24Z"/>
    </g>
  </g>
</svg>