<?xml version="1.0" encoding="UTF-8"?>
<svg xmlns="http://www.w3.org/2000/svg" version="1.1" viewBox="0 0 1350.9 546">
  <!-- Generator: Adobe Illustrator 29.0.1, SVG Export Plug-In . SVG Version: 2.1.0 Build 192)  -->
  <defs>
    <style>
      .st0 {
        fill: #e5007d;
      }

      .st1 {
        fill: #d9d9d9;
      }

      .st2 {
        fill: #fff;
      }

      .st3 {
        stroke-width: .5px;
      }

      .st3, .st4 {
        fill: none;
        stroke: #1c1c1b;
        stroke-miterlimit: 10;
      }

      .st5 {
        display: none;
      }

      .st6 {
        fill: #ececec;
      }
    </style>
  </defs>
  <g id="Guias" class="st5">
    <g>
      <rect class="st3" x="1838.5" y="-148.3" width="415.6" height="415.6"/>
      <circle class="st3" cx="2046.3" cy="59.5" r="207.8"/>
      <line class="st3" x1="1838.5" y1="267.3" x2="2254.1" y2="-148.3"/>
      <line class="st3" x1="1838.5" y1="-148.3" x2="2254.1" y2="267.3"/>
      <rect class="st3" x="1899.4" y="-87.5" width="293.9" height="293.9" transform="translate(557.3 1464.4) rotate(-45)"/>
      <circle class="st3" cx="2132.3" cy="-26.4" r="85.9"/>
      <circle class="st3" cx="1960.4" cy="-26.4" r="85.9"/>
      <path class="st3" d="M2192.7-88.3c90.1,107-10.1,267.3-146.4,355.6"/>
      <path class="st3" d="M1899.9-88.3c-90.1,107,10.1,267.3,146.4,355.6"/>
    </g>
    <circle class="st4" cx="2046.3" cy="273" r="425.2"/>
  </g>
  <g id="logo">
    <path class="st0" d="M263.4,432.2"/>
    <path class="st1" d="M429.2,128.6c-56-50.3-121.3-12.4-141.4,9.3-3.4,3.7-7.4,3.6-10.1-.6-3.9-6.1-8.9-11.9-15-16.3s-21.2-12.4-37.3-11.8-4.9,3.9-2.5,4.3c15.6,2.5,21.3,4.9,33.9,17.2,6.7,6.6,15.2,20.7,18.7,40.9s9,10.1,14.1.1c17.5-34.2,54-47.5,81.3-38.8s65.6,60.5-32.1,96.3c-.9.3-1.6,1-2.6.8-28.4-3.9-45.2,4.3-60.2,17.2-.4.3-.5.9-.1,1.3,4.9,5.8,10.8,12.2,19.2,19.3,18.7,15.8,1,31.8-18,30.8-10.8-.6-22.4-10.9-31.2-20.3s-1-.4-1.3,0c-2.1,1.9-4.2,3.8-6.4,5.8-33.9,29.3-42.2,38.7-62.1,54.7-21.1,16.9.4,51.1,15.7,42.5,5.8-3.3,18.3-13.1,30.1-22.1s6.7,2,3.8,4.6c-13,11.8-26.6,23.5-32.8,25.2h0c-2.4.7-4.1,2.7-4.4,5.2-1.9,17.7,18.4,29.9,38.4,19.3,8.9-5.3,20.2-15.3,31.2-24.6,2.9-2.4,6.7,1.6,4.1,4.4-9.2,9.6-17.9,19.1-24.7,23.8s-1.6,2.4-1,3.7c4.9,10.2,17.2,14,30.1,8.8s3-2.2,3.2-3.9c.7-4.8,4.2-10.3,11-11.2s3.5-2.4,2.7-4.4c-4.6-12.2,8.7-25.2,21.1-24.2s3.5-2.1,2.7-3.6c-7.3-14.9,3.4-23.9,13-27.8s16.1-.3,20.6,3,4.7.4,5.3-1.9c2.2-7.7,10.5-13.1,19.1-12,8.6,1.1,11.6,3.8,17.2,13.3s5.3,2.6,6.7,0c3.3-6,6.2-12.2,9.1-19.8,2.9-7.6,4.4-13.5,4.8-18.1s0-.5.2-.8c2.1-6.2,2.7-10.7,2.9-12.6,0-.6.4-1.2,1-1.5,23.5-14,97.7-107.3,22-175.2Z"/>
    <g>
      <path class="st2" d="M213.3,231.7c-99.6-52.7-30.8-119.5,38.7-88.2,4.7,2.1,7.3-3.6,4.5-7.8-17.2-25.8-85.1-34.3-119.6-7.1-79.2,62.4-16,161.6,7.4,176.8.9.6,1.4,1.5,1.6,2.5.5,4,2.6,14.6,8.5,27.6,2.7,6,10.3,7.8,15.4,3.7,12.1-9.7,29.4-26.8,49.1-43.3,3.5-2.9,1.8-8.6-2.7-9.1-11.6-1.4-17.4-1.6-16.2-2.4,3.3-2,24.2-.1,30.7-2.3s7.9-10.7,5.2-13.5.5-3.8,3.1-1.5c4.9,4.2,23.4,28.1,39.1,28.9,16.3.9,31.2-12.5,15.3-26.1-33.8-28.9-26.5-45.3-77.7-37.9-.8.1-1.6,0-2.3-.4Z"/>
      <path class="st2" d="M335.3,426.9c-2.5,5.8,41.7,0,29-27.9-12.8-28.1-21.7-39.1-35.2-41s-22.5,14.6-16.5,27,9.4,6.9,19.8,24.6c4.1,6.9,4.4,13.7,2.8,17.4Z"/>
      <path class="st2" d="M368.1,401.4c-2.2,4,24.5-10.4,15.3-31.6-8.9-20.5-10.9-21.1-18.5-22s-18.6,9.5-13.5,18.2,9.4,14.6,12.1,19.7,6,13.1,4.6,15.6Z"/>
      <path class="st2" d="M308.2,436.6c-2.1,4.8,34.4,1.3,22.4-22.2-9.1-17.9-18.8-24.5-27.8-25.1-9.1-.5-19.4,12.2-13.9,22.2s10,9.6,14.3,14.5c2.7,3,6.4,7.4,5,10.5Z"/>
      <path class="st2" d="M304.4,433.5c-3.6-8.6-16-16.5-22.4-15.5s-10.7,8.9-7.1,15.6c3.6,6.7,10.5,11.4,17.3,12.6s15.8-4.1,12.2-12.7Z"/>
    </g>
    <path class="st2" d="M630,277c-.1-2.3-1-5.2-2.6-8.5l-52.8-109.6c-.9-1.9-2.1-3.5-3.5-4.8-1.4-1.3-3-2.4-4.7-3.1-1.7-.7-3.6-1.1-5.6-1.1s-5.5.8-8.1,2.4c-2.6,1.6-4.6,3.7-5.9,6.4l-52.6,109.4c-1.7,3.3-2.7,6.2-2.8,8.7-.1,2.5.6,4.6,2.1,6.4,1.5,1.8,4,3.5,7.5,5.1,5.3,2.5,9.4,3.3,12.3,2.3,2.9-1,5.6-4.1,8.3-9.3l11.5-24.2h55.1l11.6,24.2c2.5,5.3,5.3,8.5,8.2,9.5,2.9,1,7.1.2,12.4-2.3,3.5-1.7,6-3.5,7.5-5.3,1.5-1.8,2.2-3.9,2.1-6.2ZM545.4,231.3l15.2-32,15.3,32h-30.5Z"/>
    <path class="st2" d="M650.4,289.7c-4.8,0-8.3-.7-10.4-2.2-2.1-1.5-3.4-3.3-3.8-5.6-.4-2.3-.6-4.7-.6-7.4v-70c0-2.7.2-5.1.7-7.3.5-2.2,1.8-4,3.9-5.4,2.1-1.4,5.7-2.1,10.6-2.1s8.5,1,10.8,2.9c2.3,1.9,3.4,5.1,3.4,9.5l-2.6,2.2c.3-.7,1.1-1.8,2.4-3.4,1.3-1.6,3.1-3.3,5.2-5,2.1-1.7,4.6-3.2,7.5-4.5,2.9-1.3,6-1.9,9.3-1.9s8.4.6,11.9,1.9c3.5,1.3,6.7,3.1,9.6,5.6,2.9,2.5,5.4,5.6,7.5,9.3,1.9-2.7,4.1-5.3,6.8-7.8,2.7-2.5,5.8-4.7,9.5-6.4,3.7-1.7,7.8-2.6,12.3-2.6,7.7,0,14.3,2,19.7,5.9,5.4,3.9,9.5,9.6,12.3,16.9,2.8,7.3,4.2,16.2,4.2,26.6v35.8c0,2.5-.2,5-.7,7.3-.5,2.3-1.8,4.2-3.9,5.6-2.1,1.4-5.7,2.1-10.6,2.1s-8.4-.7-10.5-2.2c-2.1-1.5-3.3-3.4-3.8-5.7-.5-2.3-.7-4.8-.7-7.3v-35.8c0-4.1-.5-7.6-1.4-10.4-.9-2.8-2.4-5-4.3-6.5-1.9-1.5-4.4-2.3-7.3-2.3s-5.7.7-7.8,2.1c-2.1,1.4-3.7,3.5-4.8,6.4-1.1,2.9-1.6,6.5-1.6,10.9v35.8c0,2.7-.3,5.2-1,7.5-.7,2.3-2.1,4.2-4.3,5.6-2.2,1.4-5.7,2-10.5,1.9-4.8-.1-8.2-.9-10.2-2.4-2-1.5-3.2-3.4-3.6-5.7-.4-2.3-.6-4.7-.6-7.1v-35.8c0-4.1-.5-7.6-1.4-10.5-.9-2.9-2.3-5-4.2-6.5-1.9-1.5-4.3-2.2-7.4-2.2s-6.1.9-8.2,2.6c-2.1,1.7-3.7,4-4.7,6.9-1,2.9-1.5,6.1-1.5,9.7v36c0,2.7-.2,5.1-.7,7.4-.5,2.3-1.8,4.1-3.9,5.5-2.1,1.4-5.7,2.1-10.6,2.1Z"/>
    <path class="st2" d="M808.4,175.3c-5.1,0-8.7-.7-10.8-2.2-2.1-1.5-3.4-3.4-3.9-5.8-.5-2.4-.7-4.9-.7-7.6s.3-5.4.8-7.7c.5-2.3,1.9-4.2,4-5.6,2.1-1.4,5.7-2.1,10.8-2.1s8.5.7,10.6,2.2c2.1,1.5,3.4,3.4,3.9,5.8.5,2.4.7,4.9.7,7.6s-.2,5.2-.7,7.6c-.5,2.4-1.8,4.3-3.9,5.7-2.1,1.4-5.7,2.1-10.8,2.1ZM808.4,289.7c-4.9,0-8.4-.7-10.5-2.1-2.1-1.4-3.3-3.3-3.8-5.6-.5-2.3-.7-4.8-.7-7.3v-69.8c0-2.7.2-5.1.7-7.4.5-2.3,1.8-4.1,3.9-5.5,2.1-1.4,5.7-2.1,10.6-2.1s8.2.7,10.3,2.2c2.1,1.5,3.3,3.3,3.8,5.6.5,2.3.7,4.8.7,7.6v69.6c0,2.5-.2,5-.7,7.3-.5,2.3-1.7,4.2-3.8,5.5-2.1,1.3-5.6,2-10.5,2Z"/>
    <path class="st2" d="M847.8,289.7c-4.1,0-7.6-1.4-10.5-4.3-2.9-2.9-4.3-6.4-4.3-10.7s.4-3.9,1.1-5.8c.7-1.9,1.9-3.5,3.5-5l45.2-44.2h-30.4c-2.5,0-5-.2-7.3-.7-2.3-.5-4.2-1.8-5.7-3.9-1.5-2.1-2.2-5.6-2.2-10.4s.7-8.4,2.2-10.5c1.5-2.1,3.4-3.3,5.7-3.8,2.3-.5,4.8-.7,7.3-.7h62.6c4.3,0,7.8,1.4,10.6,4.2,2.8,2.8,4.2,6.3,4.2,10.6s-.4,4.1-1.1,6c-.7,1.9-1.8,3.4-3.1,4.6l-44.4,44.4h36.2c2.7,0,5.1.3,7.4.8,2.3.5,4.1,1.9,5.5,4,1.4,2.1,2.1,5.7,2.1,10.6s-.7,8.3-2.2,10.4c-1.5,2.1-3.3,3.4-5.6,3.8-2.3.4-4.7.6-7.4.6h-69.4Z"/>
    <path class="st2" d="M1022.4,289.5c-4.9,0-8.6-.9-10.9-2.6-2.3-1.7-3.5-3.9-3.5-6.4l2-3.4c-.8,1.3-2.3,3-4.6,4.9-2.3,1.9-5.2,3.7-8.8,5.2s-8.1,2.3-13.4,2.3-12-1.3-17.5-4c-5.5-2.7-10.4-6.4-14.7-11.1-4.3-4.7-7.6-10.1-10.1-16.1-2.5-6-3.7-12.3-3.7-19s1.2-12.8,3.7-18.7c2.5-5.9,5.9-11.2,10.2-15.8,4.3-4.6,9.2-8.2,14.7-10.9,5.5-2.7,11.3-4,17.4-4s9.1.7,12.6,2.1c3.5,1.4,6.4,3,8.7,4.9,2.3,1.9,4.1,3.7,5.3,5.4l-1.6-2.8c-.1-3.2,1-5.6,3.3-7.3,2.3-1.7,6-2.5,11.1-2.5s8.2.7,10.3,2.2c2.1,1.5,3.3,3.4,3.8,5.8.5,2.4.7,4.9.7,7.6v69c0,2.5-.2,5-.7,7.4-.5,2.4-1.7,4.3-3.8,5.7-2.1,1.4-5.6,2.1-10.5,2.1ZM987.6,259.7c3.5,0,6.6-.9,9.5-2.7,2.9-1.8,5.1-4.2,6.8-7.3,1.7-3.1,2.5-6.5,2.5-10.2s-.9-7.3-2.6-10.3c-1.7-3-4.1-5.4-7-7.2-2.9-1.8-6.1-2.7-9.6-2.7s-7.3.9-10.3,2.8c-3,1.9-5.4,4.3-7.2,7.4-1.8,3.1-2.7,6.5-2.7,10.4s.9,6.9,2.7,9.9c1.8,3,4.3,5.4,7.4,7.2,3.1,1.8,6.6,2.7,10.5,2.7Z"/>
    <path class="st2" d="M1145.3,151.9c-.5-2.3-1.7-4.1-3.8-5.5-2.1-1.4-5.6-2.1-10.5-2.1s-8.4.7-10.4,2.2c-2,1.5-3.2,3.4-3.5,5.7-.3,2.3-.5,4.8-.5,7.3v39.6c-2.3-2.1-4.8-3.9-7.5-5.3-4.9-2.6-10.5-3.9-16.9-3.9s-11.7,1.3-17.2,4c-5.5,2.7-10.4,6.3-14.7,10.9-4.3,4.6-7.7,9.9-10.2,15.8-2.5,5.9-3.7,12.2-3.7,18.7s1.2,13.2,3.7,19.3c2.5,6.1,5.8,11.4,10.1,16.1,4.3,4.7,9.2,8.3,14.7,10.9,5.5,2.6,11.3,3.9,17.3,3.9s12.4-1.4,17.3-4.1c2.6-1.5,4.9-3.2,7.1-5.2v.5c.7,3.1,2.1,5.3,4.4,6.8,2.3,1.5,5.7,2.2,10.2,2.2s8.2-.7,10.3-2.2c2.1-1.5,3.3-3.4,3.8-5.7.5-2.3.7-4.8.7-7.3v-115.2c0-2.7-.2-5.1-.7-7.4ZM1112.9,249.9c-1.8,3.1-4.1,5.5-7,7.3-2.9,1.8-6.1,2.7-9.7,2.7s-6.7-.9-9.8-2.7c-3.1-1.8-5.5-4.2-7.2-7.3-1.7-3.1-2.6-6.5-2.6-10.2s.8-7.3,2.5-10.3c1.7-3,4-5.4,7-7.1,3-1.7,6.3-2.6,9.9-2.6s7.1.9,10,2.6c2.9,1.7,5.3,4.1,7,7.1,1.7,3,2.6,6.4,2.6,10.3s-.9,7.1-2.7,10.2Z"/>
    <path class="st2" d="M1208,291.5c-9.3,0-17.4-1.5-24.1-4.6-6.7-3.1-12.2-7.1-16.5-12.1-4.3-5-7.4-10.6-9.5-16.7-2.1-6.1-3.1-12.3-3.1-18.4,0-10,2.3-18.9,6.8-26.6,4.5-7.7,10.8-13.8,18.8-18.3,8-4.5,17.2-6.7,27.6-6.7s14.4,1.2,20.1,3.7c5.7,2.5,10.3,5.7,14,9.6,3.7,3.9,6.4,8.2,8.2,12.7,1.8,4.5,2.7,8.9,2.7,13,0,7.3-1.8,12.8-5.3,16.3s-8,5.3-13.5,5.3h-47.6c.3,3.5,1.5,6.4,3.7,8.8,2.2,2.4,5,4.3,8.3,5.6,3.3,1.3,6.9,2,10.6,2s6-.2,8.4-.5c2.4-.3,4.5-.8,6.2-1.4,1.7-.6,3.3-1.2,4.8-1.8,1.5-.6,2.8-1.1,3.9-1.5,1.1-.4,2.2-.7,3.3-.8,2-.1,3.8.4,5.5,1.7,1.7,1.3,3.2,3.2,4.5,5.7.9,1.5,1.6,2.9,1.9,4.2.3,1.3.5,2.7.5,4,0,3.2-1.6,6.1-4.9,8.6-3.3,2.5-7.9,4.5-13.8,6-5.9,1.5-13.1,2.2-21.5,2.2ZM1186.6,232.3h31.6c2.1,0,3.7-.4,4.7-1.1,1-.7,1.5-2.2,1.5-4.3s-.7-4.5-2.2-6.3c-1.5-1.8-3.4-3.2-5.9-4.2-2.5-1-5.3-1.5-8.5-1.5s-7.8.8-11,2.4c-3.2,1.6-5.7,3.7-7.5,6.4-1.8,2.7-2.7,5.5-2.7,8.6Z"/>
    <path class="st1" d="M538.6,435.5c-4.6,0-8.9-.5-12.9-1.6-4-1.1-7.7-2.5-11-4.4-3.3-1.9-6.2-3.9-8.7-6.2-2.5-2.3-4.5-4.6-5.9-6.8-1.3-1.9-2.2-3.5-2.5-4.8-.4-1.3-.3-2.5.3-3.7.5-1.2,1.6-2.5,3.3-4,1.9-1.4,3.6-2.1,5-2.1,1.4,0,2.8.6,4,1.7,1.3,1.1,2.5,2.5,3.9,4.3,3,4.1,6.7,7.1,11,8.9,4.3,1.9,8.6,2.8,12.8,2.8s10.2-.7,14.4-2.2c4.2-1.4,7.5-3.6,10-6.6,2.5-2.9,3.7-6.8,3.7-11.4s-1-7.1-2.9-9.7c-1.9-2.6-4.5-4.9-7.7-6.8-3.2-1.9-6.8-3.5-10.8-4.9-4-1.4-8-2.7-12.1-4-3.2-1.1-6.4-2.3-9.5-3.7-3.1-1.4-6.1-2.9-8.8-4.7-2.8-1.7-5.2-3.8-7.3-6.2-2.1-2.4-3.7-5.2-4.9-8.5-1.1-3.2-1.7-7-1.7-11.3,0-6.6,1.6-12.4,4.8-17.5,3.2-5,7.6-9,13.4-11.8,5.8-2.8,12.4-4.2,20-4.2s8.5.4,12.2,1.3c3.7.8,7,2,9.9,3.3,2.9,1.4,5.3,2.8,7.4,4.3,2,1.5,3.6,2.9,4.7,4.2,2.2,2.3,3.4,4.2,3.6,5.8.2,1.6-.7,3.5-2.7,5.8-1.9,2.2-3.8,3.3-5.6,3.4-1.8.1-3.8-.7-5.9-2.5-2.3-2.6-4.7-4.7-7.1-6.1-2.5-1.4-5-2.4-7.7-3-2.7-.5-5.7-.8-8.9-.8s-6,.4-8.7,1.2c-2.7.8-5,2-7,3.5-2,1.6-3.5,3.5-4.6,5.7-1.1,2.2-1.6,4.8-1.6,7.6s.9,6,2.6,8.3c1.7,2.3,4.1,4.2,6.9,5.9,2.9,1.6,6.1,3.1,9.7,4.3,3.6,1.3,7.4,2.5,11.3,3.7,4.3,1.3,8.6,2.9,12.8,4.8,4.2,1.9,8,4.1,11.3,6.8,3.4,2.7,6.1,6.1,8.1,10.2,2,4.1,3.1,9.1,3.1,15.1s-1.2,11.3-3.5,15.8c-2.3,4.6-5.6,8.4-9.6,11.4-4.1,3.1-8.7,5.4-14,6.9-5.2,1.6-10.7,2.3-16.5,2.3Z"/>
    <path class="st1" d="M671.5,433.5c-2.6,0-4.5-.5-5.7-1.6-1.1-1.1-1.8-2.8-2.1-5l.7-9c-1.2,1.9-3.1,4.1-5.6,6.6-2.5,2.5-5.8,4.6-9.9,6.5-4.1,1.9-9.1,2.8-14.9,2.8s-11.1-1.1-16.1-3.4c-5-2.3-9.4-5.5-13.1-9.5-3.8-4.1-6.7-8.8-8.8-14-2.1-5.3-3.2-10.9-3.2-16.9s1-11.4,3.2-16.6c2.1-5.2,5.1-9.8,8.9-13.8,3.8-4,8.2-7.1,13.2-9.4,5-2.3,10.3-3.4,15.9-3.4s9.8.7,13.5,2.1c3.7,1.4,6.9,3.2,9.6,5.4,2.7,2.2,5.1,4.7,7.1,7.5l-.4-7.6c-.1-2.6.5-4.5,1.7-5.7,1.3-1.1,3.3-1.7,6-1.7s3.9.4,5,1.1c1,.7,1.7,1.7,2.1,3.1.4,1.3.5,2.9.5,4.9v69.5c0,1.7-.2,3.2-.5,4.5-.4,1.3-1.1,2.3-2.2,3s-2.8,1-5,1ZM636.7,418.6c4.8,0,9.2-1.3,13.2-3.8,4-2.5,7.2-5.9,9.5-10.2,2.3-4.3,3.5-9.1,3.5-14.7s-1.2-10.6-3.7-14.8c-2.5-4.3-5.7-7.6-9.7-10.1-4-2.5-8.4-3.7-13.2-3.7s-10.5,1.3-14.7,3.9c-4.1,2.6-7.4,6-9.8,10.4-2.4,4.3-3.6,9.2-3.6,14.8s1.2,10.2,3.6,14.5c2.4,4.3,5.7,7.6,10,10.1,4.3,2.5,9.2,3.7,14.8,3.7Z"/>
    <path class="st1" d="M731.6,433.9c-5.3,0-10.2-1-14.7-2.9-4.5-1.9-8.4-4.6-11.8-8.1-3.4-3.5-6-7.7-7.8-12.6-1.9-4.9-2.8-10.5-2.8-16.7v-39.1c0-1.7.2-3.1.5-4.3.4-1.2,1.1-2.1,2.2-2.8,1.1-.7,2.8-1,5.1-1s4,.4,5.1,1.1c1.1.7,1.9,1.7,2.2,2.9.4,1.2.5,2.6.5,4.3v39.1c0,4.9.8,9.3,2.5,13.1,1.7,3.8,4.2,6.7,7.6,8.7,3.4,2,7.6,3.1,12.5,3.1s9.4-1,13.1-3.1c3.7-2,6.5-5,8.5-8.7,2-3.8,3-8.1,3-13.1v-39.2c0-1.7.2-3.1.5-4.3.4-1.2,1.1-2.1,2.2-2.8,1.1-.7,2.8-1,5.1-1s4,.4,5.1,1.1c1.1.7,1.9,1.7,2.2,2.9.3,1.2.5,2.6.5,4.3v71.5c0,1.4-.2,2.7-.5,3.9-.3,1.1-1,2-2.2,2.6-1.1.6-2.9.9-5.1.9s-3-.2-4-.5c-1-.4-1.8-.8-2.2-1.4-.5-.6-.8-1.3-1-2.1-.2-.8-.3-1.6-.3-2.4l.7-7.7c-1.2,1.4-2.6,3-4.3,4.7-1.7,1.7-3.6,3.3-5.8,4.8-2.2,1.5-4.7,2.7-7.5,3.7-2.8,1-5.9,1.4-9.4,1.4ZM730.1,334.7c-1.9.4-3.4.2-4.5-.5-1.1-.7-2-2.2-2.7-4.5-.8-2.5-1-4.4-.4-5.8.5-1.3,1.9-2.3,4.2-3.1l28.8-9.7c1.8-.4,3.2-.1,4.3.6,1.1.8,2,2.3,2.7,4.6.8,2.5.9,4.4.3,5.7-.7,1.3-2.1,2.3-4.4,3.1l-28.3,9.5Z"/>
    <path class="st1" d="M873.6,310.2c-.4-1.2-1.1-2.1-2.2-2.8-1.1-.7-2.9-1-5.1-1s-4,.3-5.1,1c-1.1.7-1.9,1.6-2.2,2.8-.3,1.2-.5,2.7-.5,4.5v45.9c-.5-.6-1-1.3-1.5-1.9-3.4-3.9-7.5-6.9-12.2-9.1-4.7-2.2-10.1-3.2-15.9-3.2s-10.6,1.1-15.5,3.2c-4.9,2.2-9.2,5.2-12.9,9.1-3.7,3.9-6.5,8.5-8.6,13.8-2.1,5.3-3.2,11-3.2,17.3s1,12.2,3.2,17.6c2.1,5.3,5,10,8.6,14,3.7,4,7.9,7,12.9,9.2,4.9,2.2,10.1,3.2,15.5,3.2s11.4-1.1,16.1-3.2c4.7-2.2,8.8-5.2,12.2-9.2.5-.6,1-1.2,1.4-1.8v7.9c.2,2.3,1,3.9,2.2,4.9,1.2,1,3.1,1.4,5.8,1.4s4-.3,5-1c1.1-.7,1.8-1.6,2.2-2.9.4-1.3.5-2.7.5-4.4v-110.9c0-1.7-.2-3.1-.5-4.3ZM854.3,404.8c-2.3,4.3-5.5,7.6-9.5,10-4,2.4-8.5,3.6-13.6,3.6s-9.5-1.2-13.6-3.6c-4.1-2.4-7.4-5.7-9.7-10-2.3-4.3-3.5-9.1-3.5-14.7s1.2-10.6,3.5-14.9c2.3-4.3,5.5-7.6,9.6-10,4.1-2.4,8.6-3.6,13.7-3.6s9.6,1.2,13.6,3.6c4,2.4,7.2,5.7,9.5,10,2.3,4.3,3.5,9.2,3.5,14.9s-1.2,10.4-3.5,14.7Z"/>
    <path class="st1" d="M934.1,434.6c-7.2,0-13.6-1.2-19.3-3.6-5.6-2.4-10.4-5.7-14.3-9.8-3.9-4.1-6.9-8.9-8.9-14.3-2-5.4-3.1-11.2-3.1-17.5s1.9-15.7,5.8-22.1c3.8-6.5,9.1-11.6,15.9-15.4,6.8-3.8,14.5-5.7,23.3-5.7s11.4.9,16.1,2.8c4.7,1.9,8.8,4.4,12.1,7.5,3.4,3.1,5.9,6.6,7.7,10.4,1.8,3.8,2.7,7.7,2.7,11.5,0,6.1-1.4,10.4-4.3,12.9-2.9,2.5-6.4,3.7-10.6,3.7h-52c-.1,5.3,1.3,9.8,4.2,13.6,2.9,3.8,6.7,6.7,11.2,8.7,4.5,2,9,3.1,13.6,3.1s6.2-.2,8.6-.5c2.4-.4,4.5-.8,6.3-1.4,1.8-.6,3.4-1.2,4.7-1.8,1.3-.6,2.5-1.2,3.5-1.8,1-.6,2-1,3-1.3,1.1-.2,2.1-.1,3.1.3,1,.4,1.8,1.2,2.4,2.4.7,1,1.2,1.9,1.4,2.7.2.8.4,1.7.4,2.7,0,1.7-1.4,3.5-4.3,5.6-2.9,2-6.9,3.8-12,5.2-5.1,1.4-10.9,2.2-17.4,2.2ZM905.3,384.4h45.2c2.3,0,4-.3,5.1-.9,1.1-.6,1.7-2.2,1.7-4.9s-1-6.4-3.1-9.1c-2-2.7-4.8-4.9-8.4-6.6-3.5-1.7-7.6-2.5-12.2-2.5s-10.1,1.1-14.5,3.2c-4.4,2.1-7.8,4.9-10.4,8.5-2.5,3.6-3.7,7.7-3.6,12.2Z"/>
    <path class="st6" d="M2024.5,237.4"/>
    <path class="st1" d="M2190.2-66.1c-56-50.3-121.3-12.4-141.4,9.3-3.4,3.7-7.4,3.6-10.1-.6-3.9-6.1-8.9-11.9-15-16.3-8.6-6.2-21.2-12.4-37.3-11.8-6.6.2-4.9,3.9-2.5,4.3,15.6,2.5,21.3,4.9,33.9,17.2,6.7,6.6,15.2,20.7,18.7,40.9,1.8,10.5,9,10.1,14.1.1,17.5-34.2,54-47.5,81.3-38.8,26.6,8.5,65.6,60.5-32.1,96.3-.9.3-1.6,1-2.6.8-28.4-3.9-45.2,4.3-60.2,17.2-.4.3-.5.9-.1,1.3,4.9,5.8,10.8,12.2,19.2,19.3,18.7,15.8,1,31.8-18,30.8-10.8-.6-22.4-10.9-31.2-20.3-.4-.4-1-.4-1.3,0-2.1,1.9-4.2,3.8-6.4,5.8-33.9,29.3-42.2,38.7-62.1,54.7-21.1,16.9.4,51.1,15.7,42.5,5.8-3.3,18.3-13.1,30.1-22.1,3-2.3,6.7,2,3.8,4.6-13,11.8-26.6,23.5-32.8,25.2h0c-2.4.7-4.1,2.7-4.4,5.2-1.9,17.7,18.4,29.9,38.4,19.3,8.9-5.3,20.2-15.3,31.2-24.6,2.9-2.4,6.7,1.6,4.1,4.4-9.2,9.6-17.9,19.1-24.7,23.8-1.2.8-1.6,2.4-1,3.7,4.9,10.2,17.2,14,30.1,8.8s3-2.2,3.2-3.9c.7-4.8,4.2-10.3,11-11.2s3.5-2.4,2.7-4.4c-4.6-12.2,8.7-25.2,21.1-24.2,2.9.2,3.5-2.1,2.7-3.6-7.3-14.9,3.4-23.9,13-27.8,8.9-3.5,16.1-.3,20.6,3s4.7.4,5.3-1.9c2.2-7.7,10.5-13.1,19.1-12,8.6,1.1,11.6,3.8,17.2,13.3,1.5,2.6,5.3,2.6,6.7,0,3.3-6,6.2-12.2,9.1-19.8,2.9-7.6,4.4-13.5,4.8-18.1s0-.5.2-.8c2.1-6.2,2.7-10.7,2.9-12.6,0-.6.4-1.2,1-1.5,23.5-14,97.7-107.3,22-175.2Z"/>
    <g>
      <path class="st2" d="M1974.4,37c-99.6-52.7-30.8-119.5,38.7-88.2,4.7,2.1,7.3-3.6,4.5-7.8-17.2-25.8-85.1-34.3-119.6-7.1-79.2,62.4-16,161.6,7.4,176.8.9.6,1.4,1.5,1.6,2.5.5,4,2.6,14.6,8.5,27.6,2.7,6,10.3,7.8,15.4,3.7,12.1-9.7,29.4-26.8,49.1-43.3,3.5-2.9,1.8-8.6-2.7-9.1-11.6-1.4-17.4-1.6-16.2-2.4,3.3-2,24.2-.1,30.7-2.3s7.9-10.7,5.2-13.5.5-3.8,3.1-1.5c4.9,4.2,23.4,28.1,39.1,28.9,16.3.9,31.2-12.5,15.3-26.1-33.8-28.9-26.5-45.3-77.7-37.9-.8.1-1.6,0-2.3-.4Z"/>
      <path class="st2" d="M2096.3,232.1c-2.5,5.8,41.7,0,29-27.9-12.8-28.1-21.7-39.1-35.2-41s-22.5,14.6-16.5,27c4.4,9.2,9.4,6.9,19.8,24.6,4.1,6.9,4.4,13.7,2.8,17.4Z"/>
      <path class="st2" d="M2129.1,206.7c-2.2,4,24.5-10.4,15.3-31.6-8.9-20.5-10.9-21.1-18.5-22-7.6-.9-18.6,9.5-13.5,18.2,4.3,7.4,9.4,14.6,12.1,19.7s6,13.1,4.6,15.6Z"/>
      <path class="st2" d="M2069.3,241.9c-2.1,4.8,34.4,1.3,22.4-22.2-9.1-17.9-18.8-24.5-27.8-25.1-9.1-.5-19.4,12.2-13.9,22.2,3.4,6.2,10,9.6,14.3,14.5,2.7,3,6.4,7.4,5,10.5Z"/>
      <path class="st2" d="M2065.5,238.8c-3.6-8.6-16-16.5-22.4-15.5-6.4,1-10.7,8.9-7.1,15.6s10.5,11.4,17.3,12.6c6.8,1.2,15.8-4.1,12.2-12.7Z"/>
    </g>
    <path class="st2" d="M1787,425.2c-.1-2.5-1.1-5.5-2.8-9l-56.2-116.6c-1-2-2.2-3.7-3.7-5.1-1.5-1.4-3.2-2.5-5-3.3-1.8-.8-3.8-1.2-6-1.2s-5.9.9-8.6,2.6-4.9,4-6.3,6.8l-56,116.4c-1.8,3.5-2.8,6.6-3,9.3-.1,2.6.6,4.9,2.2,6.8,1.6,1.9,4.3,3.7,8,5.4,5.7,2.7,10,3.5,13.1,2.4,3-1.1,6-4.4,8.8-9.9l12.2-25.8h58.7l12.3,25.8c2.7,5.7,5.6,9,8.7,10.1,3.1,1.1,7.5.2,13.2-2.4,3.7-1.8,6.3-3.7,8-5.6,1.6-1.9,2.4-4.1,2.2-6.6ZM1697,376.6l16.2-34.1,16.3,34.1h-32.5Z"/>
    <path class="st2" d="M1808.7,438.7c-5.1,0-8.8-.8-11.1-2.3-2.3-1.6-3.6-3.5-4-6-.4-2.4-.6-5-.6-7.9v-74.5c0-2.8.2-5.4.7-7.8.5-2.3,1.9-4.3,4.2-5.7,2.3-1.5,6-2.2,11.3-2.2s9.1,1,11.5,3.1c2.4,2.1,3.6,5.4,3.6,10.1l-2.8,2.3c.3-.7,1.1-1.9,2.6-3.6,1.4-1.7,3.3-3.5,5.5-5.3,2.3-1.8,4.9-3.4,8-4.8,3-1.3,6.3-2,9.9-2s8.9.7,12.7,2c3.8,1.4,7.2,3.3,10.2,6,3,2.6,5.7,5.9,8,9.9,2-2.8,4.4-5.6,7.2-8.3,2.8-2.7,6.2-5,10.1-6.8,3.9-1.8,8.3-2.8,13.1-2.8,8.2,0,15.2,2.1,21,6.3,5.7,4.2,10.1,10.2,13.1,18,3,7.8,4.5,17.2,4.5,28.3v38.1c0,2.7-.2,5.3-.7,7.8-.5,2.5-1.9,4.5-4.1,6-2.3,1.5-6,2.2-11.3,2.2s-9-.8-11.2-2.3c-2.2-1.6-3.5-3.6-4-6.1-.5-2.5-.7-5.1-.7-7.8v-38.1c0-4.4-.5-8.1-1.5-11.1-1-3-2.5-5.3-4.6-6.9-2.1-1.6-4.6-2.4-7.8-2.4s-6,.7-8.3,2.2c-2.3,1.5-4,3.8-5.1,6.8-1.1,3.1-1.7,6.9-1.7,11.6v38.1c0,2.8-.4,5.5-1.1,8-.7,2.5-2.2,4.5-4.6,6s-6.1,2.2-11.2,2c-5.1-.1-8.7-1-10.9-2.6s-3.4-3.6-3.8-6.1c-.4-2.5-.6-5-.6-7.6v-38.1c0-4.4-.5-8.1-1.5-11.2-1-3-2.5-5.4-4.5-6.9-2-1.6-4.6-2.3-7.9-2.3s-6.5.9-8.7,2.8c-2.3,1.8-3.9,4.3-5,7.3-1.1,3.1-1.6,6.5-1.6,10.3v38.3c0,2.8-.2,5.5-.7,7.9-.5,2.4-1.9,4.4-4.2,5.9-2.3,1.5-6,2.2-11.3,2.2Z"/>
    <path class="st2" d="M1976.9,317c-5.4,0-9.2-.8-11.5-2.3-2.3-1.6-3.7-3.6-4.2-6.2-.5-2.6-.7-5.2-.7-8.1s.3-5.7.9-8.2c.6-2.5,2-4.5,4.3-6,2.3-1.5,6.1-2.2,11.5-2.2s9,.8,11.3,2.3c2.3,1.6,3.7,3.6,4.2,6.2.5,2.6.7,5.3.7,8.1s-.2,5.5-.7,8.1c-.5,2.6-1.9,4.6-4.2,6.1-2.3,1.5-6.1,2.2-11.5,2.2ZM1976.9,438.7c-5.3,0-9-.7-11.2-2.2-2.2-1.5-3.5-3.5-4-6-.5-2.5-.7-5.1-.7-7.8v-74.3c0-2.8.2-5.5.7-7.9.5-2.4,1.9-4.4,4.1-5.9,2.3-1.5,6-2.2,11.3-2.2s8.8.8,11,2.3c2.2,1.6,3.5,3.5,4,6,.5,2.4.7,5.1.7,8.1v74.1c0,2.7-.2,5.3-.7,7.8-.5,2.5-1.8,4.4-4,5.9-2.2,1.4-5.9,2.1-11.2,2.1Z"/>
    <path class="st2" d="M2018.8,438.7c-4.4,0-8.1-1.5-11.2-4.6-3.1-3-4.6-6.8-4.6-11.4s.4-4.2,1.2-6.2c.8-2,2-3.8,3.7-5.3l48.1-47h-32.3c-2.7,0-5.3-.2-7.8-.7-2.5-.5-4.5-1.9-6.1-4.2-1.6-2.3-2.3-6-2.3-11.1s.8-9,2.3-11.2c1.6-2.2,3.6-3.5,6.1-4,2.5-.5,5.1-.7,7.8-.7h66.6c4.5,0,8.3,1.5,11.3,4.5,3,3,4.5,6.7,4.5,11.3s-.4,4.4-1.2,6.4c-.8,2-1.9,3.6-3.3,4.9l-47.2,47.2h38.5c2.8,0,5.5.3,7.9.9,2.4.6,4.4,2,5.9,4.3,1.5,2.3,2.2,6,2.2,11.3s-.8,8.8-2.3,11.1c-1.6,2.3-3.5,3.6-6,4-2.4.4-5,.6-7.9.6h-73.9Z"/>
    <path class="st2" d="M2204.6,438.5c-5.3,0-9.1-.9-11.6-2.8-2.5-1.8-3.7-4.1-3.7-6.8l2.1-3.6c-.9,1.4-2.5,3.2-4.9,5.2-2.4,2.1-5.5,3.9-9.4,5.5s-8.6,2.4-14.3,2.4-12.7-1.4-18.6-4.3c-5.9-2.8-11.1-6.8-15.6-11.8-4.5-5-8.1-10.7-10.7-17.1-2.6-6.4-3.9-13.1-3.9-20.2s1.3-13.6,3.9-19.9c2.6-6.3,6.2-11.9,10.9-16.8,4.6-4.9,9.8-8.8,15.6-11.6,5.8-2.8,12-4.3,18.5-4.3s9.7.7,13.4,2.2c3.7,1.5,6.8,3.2,9.3,5.2,2.5,2,4.4,3.9,5.6,5.7l-1.7-3c-.1-3.4,1-6,3.5-7.8,2.5-1.8,6.4-2.7,11.8-2.7s8.8.8,11,2.3c2.2,1.6,3.5,3.6,4,6.2.5,2.6.7,5.3.7,8.1v73.4c0,2.7-.2,5.3-.7,7.9-.5,2.6-1.8,4.6-4,6.1-2.2,1.5-5.9,2.2-11.2,2.2ZM2167.5,406.8c3.7,0,7.1-1,10.1-2.9,3-1.9,5.5-4.5,7.2-7.8,1.8-3.3,2.7-6.9,2.7-10.9s-.9-7.8-2.8-11c-1.8-3.2-4.3-5.7-7.4-7.7-3.1-1.9-6.5-2.9-10.2-2.9s-7.8,1-11,3c-3.2,2-5.7,4.6-7.7,7.9-1.9,3.3-2.9,7-2.9,11.1s1,7.3,2.9,10.5c1.9,3.2,4.5,5.7,7.9,7.7,3.3,1.9,7.1,2.9,11.2,2.9Z"/>
    <path class="st2" d="M2335.4,292.1c-.5-2.4-1.8-4.4-4-5.9-2.2-1.5-5.9-2.2-11.2-2.2s-8.9.8-11.1,2.3c-2.1,1.6-3.4,3.6-3.7,6.1-.4,2.5-.5,5.1-.5,7.8v42.2c-2.4-2.2-5.1-4.1-8-5.7-5.2-2.8-11.2-4.2-18-4.2s-12.5,1.4-18.3,4.3c-5.8,2.8-11,6.7-15.6,11.6-4.6,4.9-8.2,10.5-10.9,16.8-2.6,6.3-3.9,12.9-3.9,19.9s1.3,14.1,3.9,20.5c2.6,6.5,6.2,12.2,10.7,17.1,4.5,5,9.8,8.8,15.6,11.6,5.9,2.8,12,4.1,18.4,4.1s13.2-1.5,18.4-4.4c2.8-1.5,5.3-3.4,7.6-5.5v.5c.7,3.3,2.3,5.7,4.7,7.2,2.4,1.6,6,2.3,10.9,2.3s8.8-.8,11-2.3c2.2-1.6,3.5-3.6,4-6.1.5-2.5.7-5.1.7-7.8v-122.6c0-2.8-.2-5.5-.7-7.9ZM2300.9,396.4c-1.9,3.3-4.4,5.9-7.4,7.8-3.1,1.9-6.5,2.9-10.3,2.9s-7.2-1-10.4-2.9c-3.3-1.9-5.8-4.5-7.7-7.8-1.8-3.3-2.8-6.9-2.8-10.9s.9-7.8,2.7-11c1.8-3.2,4.3-5.7,7.4-7.6,3.2-1.8,6.7-2.8,10.5-2.8s7.5.9,10.6,2.8c3.1,1.8,5.6,4.4,7.4,7.6,1.8,3.2,2.8,6.8,2.8,11s-1,7.6-2.9,10.9Z"/>
    <path class="st2" d="M2402.1,440.7c-9.9,0-18.5-1.6-25.6-4.9-7.2-3.3-13-7.6-17.6-12.9-4.5-5.3-7.9-11.2-10.1-17.8-2.2-6.5-3.3-13.1-3.3-19.6,0-10.6,2.4-20.1,7.2-28.3,4.8-8.2,11.5-14.7,20-19.5,8.5-4.8,18.3-7.1,29.4-7.1s15.4,1.3,21.4,3.9c6,2.6,11,6,14.9,10.2,3.9,4.2,6.8,8.7,8.7,13.5,1.9,4.8,2.9,9.4,2.9,13.8,0,7.8-1.9,13.6-5.6,17.3-3.8,3.8-8.5,5.6-14.4,5.6h-50.7c.3,3.7,1.6,6.8,3.9,9.4,2.3,2.6,5.3,4.5,8.8,6,3.5,1.4,7.3,2.1,11.3,2.1s6.4-.2,8.9-.5c2.6-.4,4.8-.9,6.6-1.5,1.8-.6,3.5-1.3,5.1-1.9,1.6-.6,2.9-1.2,4.2-1.6,1.2-.4,2.4-.7,3.5-.9,2.1-.1,4.1.5,5.9,1.8,1.8,1.3,3.4,3.4,4.8,6.1,1,1.6,1.7,3.1,2,4.5.4,1.4.5,2.8.5,4.3,0,3.4-1.7,6.5-5.2,9.2-3.5,2.7-8.4,4.8-14.7,6.4-6.3,1.6-13.9,2.3-22.9,2.3ZM2379.3,377.7h33.6c2.3,0,3.9-.4,5-1.2,1.1-.8,1.6-2.3,1.6-4.6s-.8-4.8-2.3-6.7c-1.6-1.9-3.7-3.4-6.3-4.5-2.6-1.1-5.6-1.6-9-1.6s-8.3.9-11.7,2.6c-3.4,1.7-6.1,4-8,6.8-1.9,2.8-2.9,5.9-2.9,9.2Z"/>
    <path class="st1" d="M1815.6,593.9c-4.9,0-9.4-.6-13.7-1.7-4.3-1.1-8.2-2.7-11.7-4.7-3.5-2-6.6-4.2-9.3-6.6-2.7-2.4-4.8-4.9-6.3-7.3-1.4-2-2.3-3.7-2.7-5.1s-.3-2.6.3-3.9c.6-1.3,1.8-2.7,3.5-4.2,2-1.5,3.8-2.3,5.4-2.2,1.5,0,3,.7,4.3,1.8s2.7,2.7,4.1,4.6c3.2,4.3,7.1,7.5,11.7,9.5,4.6,2,9.1,3,13.6,3s10.9-.8,15.3-2.3c4.5-1.5,8-3.9,10.6-7,2.6-3.1,3.9-7.2,3.9-12.2s-1-7.5-3.1-10.3c-2-2.8-4.8-5.2-8.2-7.2-3.4-2-7.3-3.7-11.5-5.2-4.2-1.5-8.5-2.9-12.8-4.3-3.4-1.1-6.8-2.5-10.2-3.9-3.3-1.5-6.5-3.1-9.4-5-2.9-1.8-5.5-4.1-7.8-6.6-2.2-2.6-4-5.6-5.2-9-1.2-3.4-1.8-7.5-1.8-12.1,0-7,1.7-13.2,5.1-18.6,3.4-5.4,8.1-9.5,14.3-12.5,6.1-3,13.2-4.5,21.3-4.5s9.1.4,13,1.3c4,.9,7.5,2.1,10.5,3.5,3.1,1.5,5.7,3,7.9,4.6,2.2,1.6,3.8,3.1,5,4.5,2.3,2.4,3.6,4.5,3.8,6.1.3,1.7-.7,3.7-2.9,6.1-2,2.3-4,3.5-5.9,3.6-1.9.1-4-.8-6.3-2.7-2.4-2.8-5-5-7.6-6.5-2.6-1.5-5.4-2.6-8.2-3.2s-6-.9-9.5-.9-6.4.4-9.3,1.2c-2.9.8-5.4,2.1-7.5,3.7-2.1,1.7-3.7,3.7-4.9,6-1.1,2.4-1.7,5.1-1.7,8.1s.9,6.4,2.8,8.8c1.8,2.4,4.3,4.5,7.4,6.2,3.1,1.7,6.5,3.3,10.3,4.6,3.8,1.3,7.9,2.7,12.1,3.9,4.6,1.4,9.1,3.1,13.6,5.1,4.5,2,8.5,4.4,12.1,7.3,3.6,2.9,6.4,6.5,8.6,10.8,2.2,4.3,3.3,9.7,3.3,16.1s-1.2,12-3.7,16.9c-2.5,4.9-5.9,8.9-10.2,12.2-4.3,3.3-9.3,5.7-14.8,7.4s-11.4,2.5-17.5,2.5Z"/>
    <path class="st1" d="M1957,591.8c-2.8,0-4.8-.6-6-1.7-1.2-1.1-1.9-2.9-2.2-5.4l.8-9.6c-1.3,2-3.3,4.4-5.9,7-2.7,2.6-6.2,4.9-10.5,6.9-4.3,2-9.6,3-15.9,3s-11.8-1.2-17.1-3.6c-5.3-2.4-10-5.8-14-10.2-4-4.3-7.2-9.3-9.4-14.9-2.2-5.6-3.4-11.6-3.4-18s1.1-12.2,3.4-17.7c2.2-5.6,5.4-10.4,9.5-14.7,4.1-4.2,8.8-7.5,14.1-10,5.3-2.4,10.9-3.6,17-3.6s10.4.7,14.4,2.2c4,1.5,7.4,3.4,10.2,5.7,2.9,2.4,5.4,5,7.6,7.9l-.4-8c-.1-2.8.5-4.8,1.8-6,1.3-1.2,3.5-1.8,6.4-1.8s4.2.4,5.3,1.1c1.1.8,1.8,1.9,2.2,3.3.4,1.4.6,3.1.6,5.2v73.9c0,1.8-.2,3.4-.6,4.8-.4,1.4-1.1,2.5-2.3,3.2-1.1.7-2.9,1.1-5.4,1.1ZM1920,575.9c5.1,0,9.8-1.3,14.1-4,4.3-2.7,7.7-6.3,10.2-10.8,2.5-4.5,3.7-9.7,3.7-15.6s-1.3-11.3-3.9-15.8c-2.6-4.5-6.1-8.1-10.3-10.7-4.3-2.6-9-3.9-14.1-3.9s-11.2,1.4-15.6,4.1c-4.4,2.7-7.9,6.4-10.4,11-2.6,4.6-3.8,9.8-3.8,15.7s1.3,10.9,3.8,15.4c2.6,4.5,6.1,8.1,10.6,10.7,4.5,2.6,9.8,3.9,15.8,3.9Z"/>
    <path class="st1" d="M2021,592.1c-5.6,0-10.8-1-15.6-3.1-4.8-2-9-4.9-12.5-8.6-3.6-3.7-6.4-8.2-8.3-13.4-2-5.2-3-11.2-3-17.8v-41.6c0-1.8.2-3.3.6-4.6.4-1.3,1.2-2.3,2.4-3,1.2-.7,3-1.1,5.5-1.1s4.2.4,5.5,1.1c1.2.8,2,1.8,2.4,3.1.4,1.3.6,2.8.6,4.6v41.6c0,5.2.9,9.9,2.7,13.9,1.8,4,4.5,7.1,8.1,9.3,3.6,2.2,8.1,3.3,13.3,3.3s10-1.1,13.9-3.3c3.9-2.2,6.9-5.3,9-9.3,2.1-4,3.2-8.6,3.2-13.9v-41.8c0-1.8.2-3.3.6-4.6.4-1.3,1.2-2.3,2.4-3,1.2-.7,3-1.1,5.5-1.1s4.2.4,5.5,1.1c1.2.8,2,1.8,2.3,3.1.3,1.3.5,2.8.5,4.6v76c0,1.5-.2,2.9-.5,4.1-.3,1.2-1.1,2.1-2.3,2.8-1.2.6-3,1-5.5,1s-3.2-.2-4.3-.6c-1.1-.4-1.9-.9-2.4-1.5-.5-.6-.9-1.4-1.1-2.2-.2-.8-.3-1.7-.3-2.6l.8-8.2c-1.3,1.5-2.8,3.2-4.6,5-1.8,1.8-3.9,3.5-6.2,5.1-2.4,1.6-5,2.9-7.9,3.9-2.9,1-6.3,1.5-10,1.5ZM2019.4,486.6c-2,.4-3.6.2-4.8-.6-1.1-.8-2.1-2.4-2.9-4.8-.9-2.7-1.1-4.7-.5-6.1.6-1.4,2.1-2.5,4.5-3.3l30.6-10.3c1.9-.4,3.4-.2,4.6.7,1.1.8,2.1,2.5,2.9,4.9.9,2.7,1,4.7.3,6-.7,1.3-2.3,2.5-4.7,3.4l-30.1,10.2Z"/>
    <path class="st1" d="M2172.1,460.6c-.4-1.3-1.2-2.3-2.4-3-1.2-.7-3-1.1-5.5-1.1s-4.2.4-5.5,1.1c-1.2.7-2,1.7-2.3,3-.3,1.3-.5,2.9-.5,4.8v48.8c-.5-.7-1.1-1.4-1.6-2-3.6-4.1-8-7.4-13-9.7-5-2.3-10.7-3.4-17-3.4s-11.2,1.1-16.5,3.4c-5.2,2.3-9.8,5.5-13.7,9.7-3.9,4.2-7,9-9.2,14.7-2.2,5.6-3.4,11.8-3.4,18.4s1.1,13,3.4,18.7c2.2,5.7,5.3,10.6,9.2,14.8,3.9,4.2,8.5,7.5,13.7,9.8,5.2,2.3,10.7,3.4,16.5,3.4s12.1-1.1,17.1-3.4c5-2.3,9.4-5.6,12.9-9.8.5-.6,1-1.3,1.5-1.9v8.4c.3,2.4,1,4.2,2.3,5.2,1.3,1,3.3,1.5,6.1,1.5s4.2-.4,5.4-1.1c1.1-.7,1.9-1.7,2.3-3.1s.6-2.9.6-4.7v-118c0-1.8-.2-3.3-.6-4.6ZM2151.5,561.2c-2.5,4.5-5.9,8.1-10.2,10.6-4.3,2.6-9.1,3.8-14.5,3.8s-10.1-1.3-14.5-3.8c-4.4-2.6-7.9-6.1-10.3-10.6-2.5-4.5-3.7-9.7-3.7-15.6s1.2-11.3,3.7-15.8c2.5-4.5,5.9-8.1,10.2-10.6,4.3-2.6,9.2-3.8,14.6-3.8s10.2,1.3,14.5,3.8c4.3,2.6,7.7,6.1,10.2,10.6,2.5,4.5,3.7,9.8,3.7,15.8s-1.2,11.1-3.7,15.6Z"/>
    <path class="st1" d="M2236.4,592.9c-7.7,0-14.5-1.3-20.5-3.8-6-2.6-11.1-6-15.2-10.4-4.2-4.4-7.3-9.5-9.5-15.2-2.2-5.7-3.3-11.9-3.3-18.6s2-16.7,6.1-23.6c4.1-6.9,9.7-12.4,17-16.4,7.2-4,15.5-6,24.8-6s12.1,1,17.1,3c5,2,9.4,4.6,12.9,7.9,3.6,3.3,6.3,7,8.2,11.1,1.9,4.1,2.9,8.2,2.9,12.3,0,6.5-1.5,11.1-4.6,13.7-3.1,2.6-6.8,3.9-11.3,3.9h-55.4c-.1,5.6,1.4,10.4,4.5,14.5,3.1,4,7.1,7.1,11.9,9.3,4.8,2.2,9.6,3.3,14.5,3.3s6.6-.2,9.2-.6c2.6-.4,4.8-.9,6.7-1.5,1.9-.6,3.6-1.3,5-1.9,1.4-.6,2.6-1.3,3.7-1.9,1.1-.6,2.1-1.1,3.2-1.3,1.1-.3,2.3-.2,3.4.3,1.1.4,1.9,1.3,2.6,2.6.8,1,1.3,2,1.5,2.9.3.9.4,1.9.4,2.9,0,1.8-1.5,3.8-4.6,5.9-3.1,2.2-7.3,4-12.7,5.6-5.4,1.5-11.6,2.3-18.5,2.3ZM2205.8,539.5h48.1c2.4,0,4.2-.3,5.5-1,1.2-.6,1.8-2.4,1.8-5.2s-1.1-6.8-3.3-9.7c-2.2-2.9-5.1-5.2-8.9-7-3.8-1.8-8.1-2.7-12.9-2.7s-10.8,1.1-15.4,3.4c-4.7,2.2-8.3,5.3-11,9.1-2.7,3.8-4,8.2-3.8,13Z"/>
  </g>
</svg>